<?xml version="1.0" encoding="utf-8"?>
<!-- Generator: Adobe Illustrator 26.0.0, SVG Export Plug-In . SVG Version: 6.00 Build 0)  -->
<svg version="1.1" id="Layer_1" xmlns="http://www.w3.org/2000/svg" xmlns:xlink="http://www.w3.org/1999/xlink" x="0px" y="0px"
	 viewBox="0 0 1392 212" style="enable-background:new 0 0 1392 212;" xml:space="preserve">
<style type="text/css">
	.st0{fill:#FFFFFF;}
	.st1{fill:#FCFCFC;}
</style>
<path class="st0" d="M51.1,115.6c13.7,0,24.8-11.1,24.8-24.8C75.9,77.1,64.8,66,51.1,66c-13.7,0-24.8,11.1-24.8,24.8
	C26.3,104.5,37.4,115.6,51.1,115.6z"/>
<path class="st0" d="M51.1,121.3c-15.7,0-27.3,13.8-27.3,28.2v9.6c0,1.4,1.1,2.5,2.5,2.5h49.6c1.4,0,2.5-1.1,2.5-2.5v-9.6
	C78.3,135.1,66.8,121.3,51.1,121.3"/>
<path class="st0" d="M115.6,110.5c15.2,0,27.6-12.3,27.6-27.5c0-15.2-12.3-27.6-27.6-27.6C100.3,55.4,88,67.7,88,82.9
	C88,98.2,100.3,110.5,115.6,110.5z"/>
<path class="st0" d="M115.6,116.8c-17.5,0-30.3,15.4-30.3,31.3v10.7c0,1.5,1.2,2.8,2.8,2.8h55.1c1.5,0,2.8-1.2,2.8-2.8v-10.7
	C145.9,132.2,133,116.8,115.6,116.8z"/>
<path class="st0" d="M186.5,104.8c16.9,0,30.6-13.7,30.6-30.6c0-16.9-13.7-30.6-30.6-30.6c-16.9,0-30.6,13.7-30.6,30.6
	C155.9,91.1,169.6,104.8,186.5,104.8z"/>
<path class="st0" d="M186.5,111.8c-19.4,0-33.7,17.1-33.7,34.8v11.9c0,1.7,1.4,3.1,3.1,3.1h61.2c1.7,0,3.1-1.4,3.1-3.1v-11.9
	C220.2,128.9,205.9,111.8,186.5,111.8z"/>
<path class="st0" d="M318.3,158.5v-58.1l1.2,8.2l-47.1-66.6h32.1l35.9,51.6l-14.6-0.5l32.4-51.1h31.1l-45.1,68.4l2.5-11.3v59.4
	H318.3z"/>
<path class="st0" d="M428.2,160.2c-9.2,0-17.4-2-24.5-6c-7.2-4-12.8-9.4-17-16.3c-4.2-6.9-6.2-14.8-6.2-23.6
	c0-8.9,2.1-16.7,6.2-23.6c4.2-6.9,9.8-12.3,17-16.3c7.2-4,15.3-6,24.5-6c9.2,0,17.4,2,24.5,6s12.8,9.4,16.9,16.3
	c4.1,6.9,6.2,14.8,6.2,23.6c0,8.9-2.1,16.7-6.2,23.6c-4.1,6.9-9.7,12.3-16.9,16.3C445.6,158.2,437.4,160.2,428.2,160.2z
	 M428.2,137.2c4,0,7.5-1,10.6-3c3.1-2,5.5-4.7,7.3-8.2c1.8-3.4,2.6-7.4,2.5-11.8c0.1-4.4-0.7-8.4-2.5-11.9c-1.8-3.5-4.2-6.2-7.3-8.2
	c-3.1-2-6.7-3-10.6-3c-4,0-7.6,1-10.7,3c-3.2,2-5.6,4.7-7.4,8.2c-1.8,3.5-2.6,7.5-2.5,11.9c-0.1,4.4,0.7,8.4,2.5,11.8
	c1.8,3.4,4.2,6.2,7.4,8.2C420.7,136.2,424.2,137.2,428.2,137.2z"/>
<path class="st0" d="M523.4,160.4c-6.5,0-12.1-1.4-16.7-4.2c-4.6-2.8-8.2-6.9-10.6-12.2c-2.5-5.3-3.7-11.7-3.7-19.1V70.2h26.8v50.9
	c0,3.6,0.6,6.6,1.7,9.2c1.1,2.6,2.8,4.5,5,5.9c2.2,1.4,4.9,2.1,8,2.1c2.3,0,4.5-0.4,6.4-1.2c1.9-0.8,3.6-1.9,5-3.2
	c1.4-1.4,2.5-3,3.2-4.8c0.8-1.8,1.2-3.9,1.2-6.1V70.2h26.8v88.3h-25.1l-1.2-18.1l5-2c-1.3,4.2-3.6,8-6.7,11.2
	c-3.1,3.3-6.8,5.9-11.1,7.8C532.9,159.4,528.3,160.4,523.4,160.4z"/>
<path class="st0" d="M600.1,158.5V70.2h25.3l1.2,28.8l-5-5.5c1.3-4.8,3.5-9,6.6-12.8c3-3.8,6.6-6.8,10.7-9c4.1-2.2,8.5-3.3,13.1-3.3
	c2,0,3.9,0.2,5.6,0.5c1.7,0.3,3.3,0.7,4.7,1.2L655,99.5c-1.2-0.8-2.9-1.4-4.9-1.9c-2.1-0.5-4.2-0.7-6.4-0.7c-2.4,0-4.7,0.4-6.8,1.2
	c-2.1,0.8-3.9,2-5.3,3.6c-1.4,1.6-2.6,3.4-3.4,5.5c-0.8,2.1-1.2,4.5-1.2,7.2v44.3H600.1z"/>
<path class="st0" d="M790.2,201.3v-3.9h506v3.9H790.2z"/>
<g>
	<path class="st1" d="M740.4,166.6c-2.7-0.7-5.2-1.6-7.4-2.7c-2.2-1.2-4.1-2.7-5.6-4.5c-1.5-1.8-2.7-4-3.5-6.5
		c-0.8-2.5-1.2-5.4-1.2-8.6l0.3-11.9c0-5.8-1.3-10.4-3.9-13.6c-2.6-3.2-6.3-4.9-11.1-5h-2.5v-3.2h2.5c4.9-0.1,8.6-1.7,11.2-4.9
		c2.5-3.2,3.8-7.8,3.8-13.7l-0.3-11.9c0-6.4,1.6-11.4,4.7-15c3.2-3.6,7.5-6.1,13-7.3l0.7,2.4c-3.8,1-6.9,2.4-9.2,4.1
		c-2.3,1.7-4,4-5,6.9c-1,2.8-1.6,6.4-1.6,10.7l0.3,11.9c0,4.8-0.9,8.8-2.8,12c-1.9,3.2-4.7,5.4-8.4,6.6V112c3.8,1.4,6.7,3.7,8.5,6.9
		c1.8,3.2,2.7,7.1,2.7,11.9l-0.3,11.9c0,4.3,0.5,7.9,1.6,10.7c1,2.8,2.7,5.1,5,6.9c2.3,1.7,5.3,3.1,9.2,4.1L740.4,166.6z"/>
	<path class="st1" d="M818.9,144.7c-5.5,0-10.4-1-14.9-2.9c-4.4-1.9-8.1-4.7-11-8.5l8.7-7.5c2.5,2.9,5.2,5,8.2,6.3
		c3,1.3,6.3,1.9,10,1.9c1.5,0,2.9-0.2,4.2-0.6c1.3-0.4,2.4-0.9,3.4-1.7c1-0.7,1.7-1.6,2.2-2.7c0.5-1,0.7-2.2,0.7-3.4
		c0-2.2-0.8-3.9-2.4-5.2c-0.8-0.6-2.1-1.2-3.9-1.9c-1.8-0.7-4.1-1.4-6.9-2.2c-4.8-1.2-8.8-2.7-11.9-4.2c-3.1-1.6-5.5-3.4-7.1-5.4
		c-1.2-1.6-2.2-3.3-2.7-5.2c-0.6-1.9-0.9-3.9-0.9-6.2c0-2.7,0.6-5.3,1.8-7.6c1.2-2.3,2.9-4.3,5-6c2.1-1.7,4.6-3,7.5-3.9
		c2.9-0.9,5.9-1.4,9.2-1.4c3.1,0,6.1,0.4,9.2,1.2c3,0.8,5.8,2,8.4,3.6c2.6,1.6,4.7,3.5,6.5,5.6l-7.4,8.1c-1.6-1.6-3.3-3-5.2-4.2
		c-1.9-1.2-3.8-2.1-5.7-2.8c-1.9-0.7-3.7-1-5.2-1c-1.7,0-3.3,0.2-4.7,0.5c-1.4,0.3-2.6,0.8-3.6,1.5c-1,0.7-1.7,1.5-2.2,2.5
		s-0.7,2.1-0.7,3.4c0.1,1.1,0.4,2.1,0.8,3.1c0.5,1,1.1,1.8,1.9,2.4c0.9,0.7,2.3,1.4,4.1,2.1c1.8,0.7,4.2,1.5,7,2.1
		c4.2,1.1,7.6,2.3,10.3,3.6c2.7,1.3,4.8,2.8,6.4,4.4c1.7,1.6,2.8,3.4,3.5,5.5c0.7,2.1,1,4.4,1,7c0,3.7-1.1,7.1-3.2,10
		c-2.1,3-5,5.3-8.6,6.9C827.3,143.8,823.3,144.7,818.9,144.7z"/>
	<path class="st1" d="M897.2,170.9v-93h13v15l-2-1.1c0.5-2.5,1.9-4.9,4.2-7.2c2.3-2.3,5.2-4.2,8.6-5.6c3.4-1.5,6.8-2.2,10.4-2.2
		c5.9,0,11.2,1.5,15.7,4.4c4.6,2.9,8.2,6.9,10.9,12c2.7,5.1,4,10.9,4,17.5c0,6.5-1.3,12.3-3.9,17.4c-2.6,5.1-6.2,9.2-10.8,12.1
		c-4.6,3-9.7,4.4-15.5,4.4c-3.8,0-7.5-0.8-11.1-2.3c-3.6-1.5-6.6-3.5-9.1-5.9c-2.5-2.4-4-4.9-4.6-7.5l3.2-1.7v43.8H897.2z
		 M929.7,132.7c3.8,0,7.2-1,10.2-2.9c3-1.9,5.4-4.5,7.1-7.9c1.7-3.3,2.6-7.1,2.6-11.4s-0.9-8-2.6-11.3c-1.7-3.3-4.1-5.9-7.1-7.8
		c-3-1.9-6.5-2.9-10.4-2.9c-3.9,0-7.4,0.9-10.4,2.8c-3,1.9-5.4,4.5-7.1,7.8c-1.7,3.3-2.6,7.1-2.6,11.4s0.9,8,2.6,11.4
		c1.7,3.3,4.1,6,7.1,7.9C922.3,131.7,925.8,132.7,929.7,132.7z"/>
	<path class="st1" d="M1041.5,144.7c-5.4,0-10.3-1.5-14.8-4.5c-4.5-3-8-7.1-10.7-12.2c-2.7-5.2-4-11-4-17.5c0-6.6,1.4-12.4,4.1-17.5
		c2.7-5.1,6.4-9.1,11-12c4.6-2.9,9.8-4.4,15.5-4.4c3.4,0,6.5,0.5,9.4,1.5c2.8,1,5.3,2.4,7.4,4.2c2.1,1.8,3.9,3.9,5.2,6.2
		c1.4,2.3,2.2,4.8,2.6,7.5l-2.9-1v-17h13v65.5h-13v-15.6l3-0.9c-0.5,2.2-1.5,4.4-3.1,6.6c-1.5,2.1-3.5,4-5.9,5.7c-2.4,1.7-5,3-7.9,4
		C1047.7,144.2,1044.7,144.7,1041.5,144.7z M1044.9,132.8c3.9,0,7.4-1,10.4-2.9c3-1.9,5.3-4.6,7.1-7.9c1.7-3.4,2.6-7.2,2.6-11.5
		c0-4.2-0.9-8-2.6-11.4c-1.7-3.3-4.1-5.9-7.1-7.9c-3-1.9-6.5-2.9-10.4-2.9c-3.8,0-7.2,1-10.2,2.9c-3,1.9-5.3,4.5-7,7.9
		c-1.7,3.3-2.6,7.1-2.6,11.4c0,4.3,0.9,8.2,2.6,11.5c1.7,3.4,4,6,7,7.9C1037.7,131.9,1041.1,132.8,1044.9,132.8z"/>
	<path class="st1" d="M1163.5,144.7c-6.1,0-11.5-1.5-16.3-4.5c-4.8-3-8.6-7.1-11.4-12.2c-2.8-5.2-4.2-10.9-4.2-17.4
		c0-6.4,1.4-12.2,4.2-17.4c2.8-5.2,6.6-9.2,11.4-12.2c4.8-3,10.2-4.5,16.3-4.5c5.8,0,11.1,1.2,15.9,3.6c4.8,2.4,8.4,5.6,10.9,9.7
		l-7.1,8.7c-1.3-1.9-3-3.7-5.1-5.2c-2.1-1.6-4.3-2.8-6.6-3.7c-2.3-0.9-4.6-1.4-6.7-1.4c-4,0-7.6,1-10.7,2.9c-3.1,2-5.6,4.6-7.4,8.1
		c-1.8,3.4-2.7,7.2-2.7,11.5s1,8.1,2.9,11.4c1.9,3.4,4.5,6.1,7.6,8.1c3.2,2,6.7,3,10.5,3c2.2,0,4.4-0.4,6.6-1.1
		c2.1-0.7,4.2-1.9,6.2-3.4c2-1.5,3.9-3.3,5.6-5.5l7.1,8.7c-2.7,3.7-6.5,6.8-11.4,9.2C1174,143.5,1168.8,144.7,1163.5,144.7z"/>
	<path class="st1" d="M1273.3,144.7c-6.7,0-12.7-1.4-17.9-4.3c-5.2-2.9-9.3-6.8-12.2-11.8c-3-5-4.4-10.7-4.4-17.2
		c0-5.2,0.8-9.9,2.5-14.1c1.7-4.2,4-7.9,6.9-11c3-3.1,6.5-5.5,10.6-7.2c4.1-1.7,8.6-2.6,13.4-2.6c4.2,0,8.2,0.8,11.9,2.4
		c3.7,1.6,6.8,3.9,9.5,6.7c2.7,2.8,4.8,6.2,6.2,10c1.5,3.9,2.1,8.1,2.1,12.7l-0.1,5.5h-53.6l-2.9-10.2h45.3l-1.9,2.1v-3
		c-0.2-2.7-1.2-5.2-2.7-7.4c-1.6-2.2-3.6-3.9-6-5.1c-2.4-1.2-5-1.9-7.9-1.9c-4.5,0-8.3,0.9-11.4,2.6c-3.1,1.7-5.4,4.2-7,7.5
		c-1.6,3.3-2.4,7.3-2.4,12.2c0,4.6,1,8.6,2.9,11.9c1.9,3.4,4.6,6,8.1,7.8c3.5,1.8,7.5,2.7,12.1,2.7c3.2,0,6.3-0.5,9.1-1.6
		c2.8-1.1,5.8-3,9.1-5.9l6.5,9.1c-2,2-4.4,3.7-7.3,5.2c-2.9,1.5-5.9,2.7-9.1,3.6C1279.6,144.2,1276.4,144.7,1273.3,144.7z"/>
	<path class="st1" d="M1354.6,166.6l-0.7-2.4c3.8-1,6.9-2.4,9.2-4.1c2.3-1.7,4-4,5-6.9c1-2.8,1.6-6.4,1.6-10.7l-0.3-11.9
		c0-4.8,0.9-8.8,2.8-12c1.9-3.2,4.7-5.4,8.4-6.6v0.4c-3.8-1.4-6.7-3.7-8.5-6.9c-1.8-3.2-2.7-7.1-2.7-11.9l0.3-11.9
		c0-4.3-0.5-7.9-1.6-10.7c-1-2.8-2.7-5.1-5-6.9c-2.3-1.7-5.3-3.1-9.2-4.1l0.7-2.4c2.7,0.6,5.2,1.5,7.4,2.7c2.2,1.2,4.1,2.7,5.6,4.6
		c1.5,1.8,2.7,4,3.5,6.5c0.8,2.5,1.2,5.4,1.2,8.6l-0.2,11.9c0,5.8,1.3,10.4,3.9,13.6c2.6,3.2,6.3,4.9,11.1,5h2.5v3.2h-2.5
		c-4.9,0.1-8.6,1.7-11.2,4.9c-2.5,3.2-3.8,7.8-3.8,13.7l0.2,11.9c0,6.4-1.6,11.4-4.7,15C1364.4,163,1360.1,165.4,1354.6,166.6z"/>
</g>
</svg>
