<?xml version="1.0" encoding="utf-8"?>
<!-- Generator: Adobe Illustrator 26.0.0, SVG Export Plug-In . SVG Version: 6.00 Build 0)  -->
<svg version="1.1" id="Layer_1" xmlns="http://www.w3.org/2000/svg" xmlns:xlink="http://www.w3.org/1999/xlink" x="0px" y="0px"
	 viewBox="0 0 408.6 212" style="enable-background:new 0 0 408.6 212;" xml:space="preserve">
<style type="text/css">
	.st0{fill:#FFFFFF;}
</style>
<path class="st0" d="M77.8,129.4c24.6,0,44.6-19.9,44.6-44.6c0-24.6-20-44.6-44.6-44.6c-24.6,0-44.6,20-44.6,44.6
	C33.2,109.5,53.2,129.4,77.8,129.4z"/>
<path class="st0" d="M77.8,139.6c-28.3,0-49,24.9-49,50.6v17.3c0,2.5,2,4.5,4.5,4.5h89.1c2.5,0,4.5-2,4.5-4.5v-17.3
	C126.8,164.5,106.1,139.6,77.8,139.6"/>
<path class="st0" d="M193.8,120.2c27.4,0,49.5-22.2,49.5-49.5c0-27.4-22.2-49.5-49.5-49.5c-27.4,0-49.6,22.2-49.6,49.5
	C144.2,98.1,166.4,120.2,193.8,120.2z"/>
<path class="st0" d="M193.8,131.5c-31.4,0-54.5,27.7-54.5,56.3V207c0,2.7,2.2,5,4.9,5h99c2.7,0,5-2.2,5-5v-19.2
	C248.2,159.2,225.2,131.5,193.8,131.5z"/>
<path class="st0" d="M321.3,110.1c30.4,0,55-24.6,55-55c0-30.4-24.6-55-55-55c-30.4,0-55.1,24.6-55.1,55
	C266.2,85.4,290.9,110.1,321.3,110.1z"/>
<path class="st0" d="M321.3,122.6c-34.9,0-60.5,30.7-60.5,62.5v21.4c0,3,2.5,5.5,5.5,5.5h110c3,0,5.5-2.5,5.5-5.5v-21.4
	C381.8,153.3,356.2,122.6,321.3,122.6z"/>
</svg>
